<svg xmlns="http://www.w3.org/2000/svg" viewBox="0 0 100 100" role="img" aria-label="Release Tecnologia">
  <defs>
    <clipPath id="release-mark">
      <path d="M0 0h100v100H20Q0 100 0 80V0z"/>
    </clipPath>
  </defs>
  <g clip-path="url(#release-mark)">
    <rect width="100" height="25" fill="#550909"/>
    <rect y="25" width="100" height="25" fill="#8a1010"/>
    <rect y="50" width="100" height="25" fill="#c41616"/>
    <rect y="75" width="100" height="25" fill="#ee1c1c"/>
  </g>
  <path fill="#fff" d="M24 18h28c11.5 0 18.5 5.8 18.5 15.2 0 6.2-3.2 10.8-8.5 13.2L72 82H56l-9.5-16.5H38V82H24V18zm14 26.5h11.5c5.2 0 8-2.4 8-6.3s-2.8-6.3-8-6.3H38v12.6z"/>
</svg>
